<svg xmlns="http://www.w3.org/2000/svg" viewBox="0 0 577.37 213.93"><defs><style>.cls-1{fill:#fff;}.cls-2{fill:#2f7cc0;}</style></defs><title>Full logo - Light</title><g id="Layer_2" data-name="Layer 2"><g id="Layer_1-2" data-name="Layer 1"><path class="cls-1" d="M164,154.15A60.63,60.63,0,0,1,134,40.81a8.06,8.06,0,0,1,8,14,44.51,44.51,0,1,0,44,0,8.06,8.06,0,1,1,8-14,60.63,60.63,0,0,1-30,113.34Z"/><path class="cls-2" d="M207.84,8.15C195.1-2.06,185.39-.83,179.5,2c-7.29,3.5-12.84,11.25-16.78,23.49-3.31-6.5-7.5-10.86-12.6-13.15-9-4-19.08-1.12-30,8.62a8.06,8.06,0,0,0,10.73,12c5.5-4.91,10.13-7.08,12.67-5.94,7.39,3.31,12.37,28,12.38,48.94,0,.16,0,.31,0,.46a2.11,2.11,0,0,0,0,.36,4.51,4.51,0,0,0,.08.53,2.51,2.51,0,0,0,0,.27c0,.2.09.38.14.57l.06.2a5.31,5.31,0,0,0,.22.6.88.88,0,0,0,0,.15,5.48,5.48,0,0,0,.29.6l0,.1c.1.19.22.37.33.56a.61.61,0,0,1,.07.1,6.46,6.46,0,0,0,.44.59s0,0,0,0a8.11,8.11,0,0,0,3,2.29h0a8,8,0,0,0,3.13.64A8.06,8.06,0,0,0,172,76c0-22,5-54.93,14.46-59.46,3.12-1.5,7.85,1.46,11.28,4.2A8.06,8.06,0,0,0,207.84,8.15Z"/><path class="cls-1" d="M16.21,154.08H0V9.2H78.45V24.05H16.21V73.8h60v14h-60Z"/><path class="cls-1" d="M340.08,95.36c0-28.21-9.72-43.29-35-43.29-25.87,0-39.76,18.93-39.76,44.4v57.61H249.47V39.76h15.85V64.09c7-13.82,21.56-25.6,43.2-25.6,33.64,0,47.69,20.19,47.69,56.45v59.14H340.08Z"/><path class="cls-1" d="M387.48,103.2V53.57H370.33V40h17.15V18.93l15.79-7V40h42.5V53.57h-42.5V103.2c0,30.19,11.83,40.18,42.5,36.87V154.5C406.48,158.75,387.48,144.77,387.48,103.2Z"/><path class="cls-1" d="M455,96.81c0-33.14,25.19-58.66,61.12-58.66,37.36,0,63.47,27.4,61.07,65.14l-105.83-.09c1.1,22.47,20.82,38.85,46,38.85,14.85,0,28.92-4,42.22-19L572.26,131c-15.11,17.52-33.7,24.82-54.86,24.82C480.36,155.78,455,130.11,455,96.81ZM561.54,89.9c-1.35-22.75-19.27-38-45.13-38-25.1,0-43.75,15.76-45,38Z"/><path class="cls-1" d="M260.89,169.84H249.1v-4.71h29.17v4.71H266.49v31.79h-5.6Z"/><path class="cls-1" d="M284,188a13.74,13.74,0,0,1,14-14.24c8,0,12.54,5.25,12.54,12.85a20.64,20.64,0,0,1-.25,3H287.86v-4.07h18.95l-1.2,1.35c0-5.9-2.86-8.85-7.48-8.85s-8.67,3.52-8.67,9.94c0,6.69,4.19,10,10.05,10a14.85,14.85,0,0,0,7.95-2.39l2,3.51a19.32,19.32,0,0,1-10.61,3.23C290.54,202.3,284,197,284,188Z"/><path class="cls-1" d="M318.13,188.06c0-9.12,7.05-14.33,15.33-14.33a14.09,14.09,0,0,1,10,3.9l-2.67,3.51a10.9,10.9,0,0,0-7.08-2.85c-5.86,0-9.89,3.9-9.89,9.77s4,9.67,9.74,9.67a12.79,12.79,0,0,0,8.08-3.2L344,198.1a16.58,16.58,0,0,1-10.91,4.2C324.56,202.3,318.13,197.08,318.13,188.06Z"/><path class="cls-1" d="M352.18,174.39h4.54l.44,4.35h.23c2.72-2.8,5.83-5,10-5,6.37,0,9.27,3.91,9.27,11v16.9h-5.55V185.46c0-4.75-1.6-7-5.64-7-3,0-5,1.46-7.77,4.34v18.78h-5.55Z"/><path class="cls-1" d="M383.9,188.06c0-9.12,6.39-14.33,13.57-14.33S411,178.94,411,188.06s-6.39,14.24-13.56,14.24S383.9,197.08,383.9,188.06Zm21.45,0c0-5.87-3.06-9.77-7.88-9.77s-7.88,3.9-7.88,9.77,3.06,9.67,7.88,9.67S405.35,193.88,405.35,188.06Z"/><path class="cls-1" d="M427.32,192.1V166.54H418v-4.43h14.91v30.32c0,3.78,2.14,5.3,5.13,5.3a12.05,12.05,0,0,0,4.88-1.14l1.33,4.12a17.89,17.89,0,0,1-7.5,1.59C430.61,202.3,427.32,198.66,427.32,192.1Z"/><path class="cls-1" d="M450.79,188.06c0-9.12,6.39-14.33,13.57-14.33s13.56,5.21,13.56,14.33-6.39,14.24-13.56,14.24S450.79,197.08,450.79,188.06Zm21.45,0c0-5.87-3.06-9.77-7.88-9.77s-7.88,3.9-7.88,9.77,3.06,9.67,7.88,9.67S472.24,193.88,472.24,188.06Z"/><path class="cls-1" d="M484.8,206.52c0-2.2,1.54-4.29,4.42-5.9v-.22a5,5,0,0,1-2.79-4.52,6.66,6.66,0,0,1,3.26-5.1v-.23a8.57,8.57,0,0,1-3.43-7c0-6.1,5.08-9.78,11-9.78a12,12,0,0,1,4.15.66h11.21v4.33h-6.65a7.67,7.67,0,0,1,2,5c0,5.94-4.72,9.29-10.72,9.29a12.24,12.24,0,0,1-4.38-.88A3.34,3.34,0,0,0,491,195c0,1.95,1.9,2.85,5.39,2.85h5.82c7,0,10.55,1.84,10.55,6.52,0,5.25-6,9.6-15.42,9.6C489.57,213.93,484.8,211.35,484.8,206.52Zm22.56-1.29c0-2.36-2-3-5.85-3h-4.83a15.84,15.84,0,0,1-4.14-.42c-2.26,1.26-3.07,2.63-3.07,4,0,2.65,3,4.25,8.38,4.25C503.67,210.11,507.36,207.79,507.36,205.23Zm-4.43-21.72a5.71,5.71,0,1,0-5.71,5.94A5.61,5.61,0,0,0,502.93,183.51Z"/><path class="cls-1" d="M531.55,178.83H519.38v-4.44h17.73v27.24h-5.56Zm-1.81-13.71a4.15,4.15,0,1,1,4.14,3.94A3.89,3.89,0,0,1,529.74,165.12Z"/><path class="cls-1" d="M552.16,194.44c0-6.11,5.54-9.11,19.29-10.14-.2-3.37-2-6.08-6.85-6.08-3.29,0-6.54,1.51-9.2,3.07l-2.12-3.7a24.44,24.44,0,0,1,12.31-3.86c7.51,0,11.41,4.31,11.41,11.5v16.4h-4.58L572,198.1h-.18c-2.91,2.28-6.7,4.2-10.43,4.2C556.16,202.3,552.16,199.24,552.16,194.44Zm19.29-.21v-6.38c-10.7.77-13.87,2.92-13.87,6.17,0,2.74,2.46,3.87,5.37,3.87S568.63,196.52,571.45,194.23Z"/></g></g></svg>