<svg xmlns="http://www.w3.org/2000/svg" viewBox="0 0 130.96 166.49"><defs><style>.cls-1{fill:#fff;}.cls-2{fill:#2f7cc0;}</style></defs><title>Icon - Light</title><g id="Layer_2" data-name="Layer 2"><g id="Layer_1-2" data-name="Layer 1"><path class="cls-1" d="M65.48,166.49A65.48,65.48,0,0,1,33.12,44.08a8.7,8.7,0,1,1,8.61,15.13,48.08,48.08,0,1,0,47.49,0,8.71,8.71,0,1,1,8.62-15.13A65.48,65.48,0,0,1,65.48,166.49Z"/><path class="cls-2" d="M112.87,8.8C99.1-2.23,88.63-.9,82.26,2.16,74.38,5.94,68.39,14.31,64.14,27.54c-3.58-7-8.1-11.74-13.62-14.21-9.7-4.35-20.6-1.21-32.4,9.31a8.7,8.7,0,0,0,11.59,13c5.95-5.3,10.94-7.64,13.69-6.41,8,3.57,13.35,30.21,13.37,52.86,0,.17,0,.33,0,.5s0,.26,0,.38a5.4,5.4,0,0,0,.09.58,2.89,2.89,0,0,0,0,.29,6.06,6.06,0,0,0,.16.61,1.41,1.41,0,0,0,.06.22c.06.22.15.44.23.65l.06.15a6.49,6.49,0,0,0,.31.65l0,.11c.12.21.24.41.37.6l.07.12c.15.22.31.43.47.63l0,0a8.72,8.72,0,0,0,3.29,2.47h0a8.7,8.7,0,0,0,12.09-8c0-23.78,5.43-59.33,15.62-64.22,3.37-1.61,8.48,1.58,12.18,4.54A8.71,8.71,0,1,0,112.87,8.8Z"/></g></g></svg>