<svg xmlns="http://www.w3.org/2000/svg" viewBox="0 0 577.37 155.78"><defs><style>.cls-1{fill:#fff;}.cls-2{fill:#2f7cc0;}</style></defs><title>Logo - Light</title><g id="Layer_2" data-name="Layer 2"><g id="Layer_1-2" data-name="Layer 1"><path class="cls-1" d="M164,154.15A60.63,60.63,0,0,1,134,40.81a8.06,8.06,0,0,1,8,14,44.51,44.51,0,1,0,44,0,8.06,8.06,0,1,1,8-14,60.63,60.63,0,0,1-30,113.34Z"/><path class="cls-2" d="M207.84,8.15C195.1-2.06,185.39-.83,179.5,2c-7.29,3.5-12.84,11.25-16.78,23.49-3.31-6.5-7.5-10.86-12.6-13.15-9-4-19.08-1.12-30,8.62a8.06,8.06,0,0,0,10.73,12c5.5-4.91,10.13-7.08,12.67-5.94,7.39,3.31,12.37,28,12.38,48.94,0,.16,0,.31,0,.46a2.11,2.11,0,0,0,0,.36,4.51,4.51,0,0,0,.08.53,2.51,2.51,0,0,0,0,.27c0,.2.09.38.14.57l.06.2a5.31,5.31,0,0,0,.22.6.88.88,0,0,0,0,.15,5.48,5.48,0,0,0,.29.6l0,.1c.1.19.22.37.33.56a.61.61,0,0,1,.07.1,6.46,6.46,0,0,0,.44.59s0,0,0,0a8.11,8.11,0,0,0,3,2.29h0a8,8,0,0,0,3.13.64A8.06,8.06,0,0,0,172,76c0-22,5-54.93,14.46-59.46,3.12-1.5,7.85,1.46,11.28,4.2A8.06,8.06,0,0,0,207.84,8.15Z"/><path class="cls-1" d="M16.21,154.08H0V9.2H78.45V24.05H16.21V73.8h60v14h-60Z"/><path class="cls-1" d="M340.08,95.36c0-28.21-9.72-43.29-35-43.29-25.87,0-39.76,18.93-39.76,44.4v57.61H249.47V39.76h15.85V64.09c7-13.82,21.56-25.6,43.2-25.6,33.64,0,47.69,20.19,47.69,56.45v59.14H340.08Z"/><path class="cls-1" d="M387.48,103.2V53.57H370.33V40h17.15V18.93l15.79-7V40h42.5V53.57h-42.5V103.2c0,30.19,11.83,40.18,42.5,36.87V154.5C406.48,158.75,387.48,144.77,387.48,103.2Z"/><path class="cls-1" d="M455,96.81c0-33.14,25.19-58.66,61.12-58.66,37.36,0,63.47,27.4,61.07,65.14l-105.83-.09c1.1,22.47,20.82,38.85,46,38.85,14.85,0,28.92-4,42.22-19L572.26,131c-15.11,17.52-33.7,24.82-54.86,24.82C480.36,155.78,455,130.11,455,96.81ZM561.54,89.9c-1.35-22.75-19.27-38-45.13-38-25.1,0-43.75,15.76-45,38Z"/></g></g></svg>